<svg xmlns="http://www.w3.org/2000/svg" xmlns:xlink="http://www.w3.org/1999/xlink" version="1.1" x="0px" y="0px" viewBox="0 0 100 125" style="enable-background:new 0 0 100 100;" xml:space="preserve"><g><path d="M70.4,32.5l1.2-1.6l1.4,1.1c0.9,0.7,2.2,0.5,2.9-0.4l0.4-0.6c0.7-0.9,0.5-2.2-0.4-2.9l-6.6-5c-0.9-0.7-2.2-0.5-2.9,0.4   L66,24c-0.7,0.9-0.5,2.2,0.4,2.9l1.4,1.1l-1.2,1.6c-3.8-2.5-8.1-4.1-12.8-4.7v-2.3h3.6c1.3,0,2.3-1,2.3-2.3v-2.9   c0-1.3-1-2.3-2.3-2.3H42.7c-1.3,0-2.3,1-2.3,2.3v2.9c0,1.3,1,2.3,2.3,2.3h3.6v2.3c-14.9,1.8-26.5,14.6-26.5,30   C19.8,71.4,33.3,85,50,85s30.2-13.6,30.2-30.2C80.2,46,76.4,38,70.4,32.5z M50,79.1c-13.4,0-24.3-10.9-24.3-24.3   c0-13.4,10.9-24.3,24.3-24.3c13.4,0,24.3,10.9,24.3,24.3C74.3,68.2,63.4,79.1,50,79.1z"/><path d="M52.5,51.1L50,36.9l-2.5,14.2c-1.2,0.8-2,2.2-2,3.7c0,2.5,2,4.5,4.5,4.5s4.5-2,4.5-4.5C54.5,53.2,53.7,51.9,52.5,51.1z"/></g></svg>